<?xml version="1.0" encoding="UTF-8" standalone="no"?>
<!-- Created with Inkscape (http://www.inkscape.org/) -->

<svg
   version="1.1"
   id="svg1"
   width="1491.3503"
   height="1491.3503"
   viewBox="0 0 1491.3503 1491.3503"
   xml:space="preserve"
   xmlns:xlink="http://www.w3.org/1999/xlink"
   xmlns="http://www.w3.org/2000/svg"
   xmlns:svg="http://www.w3.org/2000/svg"><defs
     id="defs1"><linearGradient
       id="linearGradient14-1"><stop
         style="stop-color:#39dcc6;stop-opacity:1;"
         offset="0"
         id="stop29" /><stop
         style="stop-color:#189498;stop-opacity:1;"
         offset="1"
         id="stop30" /></linearGradient><linearGradient
       id="linearGradient14"><stop
         style="stop-color:#e5e8eb;stop-opacity:1;"
         offset="0"
         id="stop25" /><stop
         style="stop-color:#b7bcc4;stop-opacity:1;"
         offset="1"
         id="stop26" /></linearGradient><linearGradient
       id="linearGradient9"><stop
         style="stop-color:#4b5362;stop-opacity:1;"
         offset="0"
         id="stop11" /><stop
         style="stop-color:#0a0e16;stop-opacity:1;"
         offset="1"
         id="stop10" /></linearGradient><linearGradient
       id="linearGradient2"><stop
         style="stop-color:#69e6d7;stop-opacity:1;"
         offset="0"
         id="stop8" /><stop
         style="stop-color:#2f59a6;stop-opacity:1;"
         offset="1"
         id="stop9" /></linearGradient><linearGradient
       xlink:href="#linearGradient2"
       id="linearGradient8"
       x1="863.70178"
       y1="325.27271"
       x2="863.70178"
       y2="1358.3763"
       gradientUnits="userSpaceOnUse" /><linearGradient
       xlink:href="#linearGradient9"
       id="linearGradient11"
       x1="-38.031509"
       y1="850.95502"
       x2="1699.5331"
       y2="850.95502"
       gradientUnits="userSpaceOnUse"
       gradientTransform="matrix(0.85829923,0,0,0.85479121,122.96725,108.61115)" /><linearGradient
       xlink:href="#linearGradient14"
       id="linearGradient16"
       x1="1007.835"
       y1="729.72961"
       x2="1024.4738"
       y2="729.72961"
       gradientUnits="userSpaceOnUse" /><linearGradient
       xlink:href="#linearGradient14"
       id="linearGradient20"
       gradientUnits="userSpaceOnUse"
       x1="1015.5768"
       y1="623.75201"
       x2="1015.5768"
       y2="858.08203" /><linearGradient
       xlink:href="#linearGradient14-1"
       id="linearGradient24"
       gradientUnits="userSpaceOnUse"
       x1="1018.3813"
       y1="623.51166"
       x2="1018.3813"
       y2="863.15491" /><linearGradient
       xlink:href="#linearGradient14-1"
       id="linearGradient25"
       gradientUnits="userSpaceOnUse"
       x1="1015.5768"
       y1="623.75201"
       x2="1015.5768"
       y2="858.08203"
       gradientTransform="matrix(1,0,0,1.0196821,0,-11.806876)" /><linearGradient
       xlink:href="#linearGradient14-1"
       id="linearGradient32"
       gradientUnits="userSpaceOnUse"
       x1="1018.3813"
       y1="623.51166"
       x2="1018.3813"
       y2="863.15491" /><linearGradient
       xlink:href="#linearGradient14-1"
       id="linearGradient33"
       gradientUnits="userSpaceOnUse"
       gradientTransform="matrix(1,0,0,1.0196821,0,-11.806876)"
       x1="1015.5768"
       y1="623.75201"
       x2="1015.5768"
       y2="858.08203" /><linearGradient
       xlink:href="#linearGradient14-1"
       id="linearGradient38"
       gradientUnits="userSpaceOnUse"
       x1="1018.3813"
       y1="623.51166"
       x2="1018.3813"
       y2="863.15491" /><linearGradient
       xlink:href="#linearGradient14-1"
       id="linearGradient39"
       gradientUnits="userSpaceOnUse"
       gradientTransform="matrix(1,0,0,0.60143648,0,348.07796)"
       x1="1015.5768"
       y1="623.75201"
       x2="1015.5768"
       y2="858.08203" /><linearGradient
       xlink:href="#linearGradient14"
       id="linearGradient41"
       gradientUnits="userSpaceOnUse"
       x1="1007.835"
       y1="729.72961"
       x2="1024.4738"
       y2="729.72961" /><linearGradient
       xlink:href="#linearGradient14"
       id="linearGradient42"
       gradientUnits="userSpaceOnUse"
       x1="1015.5768"
       y1="623.75201"
       x2="1015.5768"
       y2="858.08203" /><linearGradient
       xlink:href="#linearGradient2"
       id="linearGradient46"
       x1="880.41382"
       y1="324.78604"
       x2="880.41382"
       y2="1339.4088"
       gradientUnits="userSpaceOnUse" /></defs><g
     id="g1"
     transform="translate(-90.324837,-90.324837)"><rect
       style="display:inline;fill:url(#linearGradient11);stroke-width:1.71308;stroke-linecap:square"
       id="rect9"
       width="1491.3503"
       height="1491.3503"
       x="90.324837"
       y="90.324837" /><g
       id="g54"
       transform="translate(6.8605003,-1.4658071)"><path
         id="path43"
         style="display:inline;fill:url(#linearGradient46);stroke:none;stroke-width:2;stroke-linecap:square"
         d="M 877.72852,311.36523 A 526.10071,526.10071 0 0 0 351.62891,837.4668 526.10071,526.10071 0 0 0 877.72852,1363.5664 526.10071,526.10071 0 0 0 1242.1074,1216.9531 L 1134.3164,1108.332 A 373.10205,373.10205 0 0 1 877.72852,1210.5684 373.10205,373.10205 0 0 1 504.62695,837.4668 373.10205,373.10205 0 0 1 877.72852,464.36523 373.10205,373.10205 0 0 1 1098.9688,537.03711 L 1212.6855,431.77344 A 526.10071,526.10071 0 0 0 877.72852,311.36523 Z" /><path
         id="path46"
         fill="none"
         stroke="#000000"
         stroke-width="1"
         d="m 657.31019,1133.554 c 32.0893,-2.5597 64.8718,-37.8486 90.6553,-56.3263 20.2108,-14.4915 46.7008,-27.1166 71.991,-27.2366 h 21.3306 l 13.3317,1.2132 c 7.2524,0.4933 20.7707,-0.7466 27.9965,-2.0264 34.809,-6.1726 68.1915,-24.6369 97.3212,-44.0745 57.00621,-38.0086 113.18581,-94.1882 156.54041,-147.0883 L 1186.204,792.69 c 2.9996,-4.2928 16.4913,-22.8772 17.1712,-26.5967 0.9732,-5.2793 -6.3459,-7.1191 -10.1321,-8.4789 l -29.1563,-10.9587 c -4.4261,-2.6663 -6.4259,-7.719 -3.9195,-12.4917 34.3848,-24.86121 133.2508,-74.79584 138.3693,-74.3507 9.3189,0.7999 8.0923,11.5185 8.0257,18.2244 -4.4596,42.65667 -8.9707,85.3077 -13.2384,127.984 -0.3599,3.9461 -0.7332,10.8653 -2.9729,14.2248 -3.7062,5.3327 -9.8255,3.8929 -14.0649,0 l -16.9446,-19.5308 c -3.3196,-3.6529 -6.3059,-7.1725 -11.2119,-3.5329 l -20.0508,26.17 -43.1946,54.6598 c -55.913,66.1118 -126.5175,138.596 -202.28141,181.684 -33.6891,19.1576 -69.8313,36.5154 -109.3197,37.2353 h -11.9985 c -20.944,-0.5066 -39.2617,-3.3995 -59.9925,2.2797 -27.1699,7.4391 -51.9535,28.7831 -73.3241,46.4342 l -35.9955,29.663 c -124.56571,64.0847 -153.88463,-51.8885 -34.6623,-41.7548 z M 1294.5638,656.707 h 1.3332 l -1.3332,1.3332 z"
         style="display:inline;fill:url(#linearGradient8);stroke:none"><title
           id="title46">Selection</title></path><g
         id="g42"
         style="display:inline"
         transform="matrix(0.9141993,0,0,0.9141993,92.31161,46.703552)"><g
           id="g14"
           style="display:inline"><rect
             style="opacity:1;fill:url(#linearGradient16);stroke:none;stroke-width:2;stroke-linecap:square"
             id="rect13"
             width="16.638784"
             height="370.80722"
             x="1007.835"
             y="544.32599"
             ry="8.3193922" /><rect
             style="opacity:1;fill:url(#linearGradient20);fill-opacity:1;stroke:none;stroke-width:3.36977;stroke-linecap:square"
             id="rect21"
             width="73.68605"
             height="237.69695"
             x="979.3114"
             y="622.76599"
             ry="16.737856" /></g><g
           id="g24"
           transform="translate(-100.42713,72.530707)"
           style="display:inline"><rect
             style="opacity:1;fill:url(#linearGradient24);stroke:none;stroke-width:2;stroke-linecap:square"
             id="rect22"
             width="16.638784"
             height="370.80722"
             x="1007.835"
             y="544.32599"
             ry="8.3193922" /><rect
             style="opacity:1;fill:url(#linearGradient25);fill-opacity:1;stroke:none;stroke-width:3.40277;stroke-linecap:square"
             id="rect24"
             width="73.68605"
             height="242.37532"
             x="979.3114"
             y="623.21643"
             ry="17.067291" /></g><g
           id="g32"
           transform="translate(-204.80899,178.40374)"
           style="display:inline"><rect
             style="opacity:1;fill:url(#linearGradient32);stroke:none;stroke-width:2;stroke-linecap:square"
             id="rect30"
             width="16.638733"
             height="290.80719"
             x="1007.835"
             y="544.32599"
             ry="8.3193922" /><rect
             style="opacity:1;fill:url(#linearGradient33);fill-opacity:1;stroke:none;stroke-width:3.40277;stroke-linecap:square"
             id="rect32"
             width="73.686035"
             height="162.37531"
             x="979.3114"
             y="623.21643"
             ry="17.067291" /></g><g
           id="g32-9"
           transform="matrix(1.0078604,0,0,1.0078604,-419.88615,170.67979)"
           style="display:inline"><rect
             style="opacity:1;fill:url(#linearGradient38);stroke:none;stroke-width:2;stroke-linecap:square"
             id="rect30-4"
             width="16.638733"
             height="250.80719"
             x="1007.835"
             y="664.32599"
             ry="8.3193922"
             rx="0" /><rect
             style="opacity:1;fill:url(#linearGradient39);fill-opacity:1;stroke:none;stroke-width:2.61334;stroke-linecap:square"
             id="rect32-9"
             width="73.68605"
             height="142.95961"
             x="979.3114"
             y="722.63214"
             ry="10.066757" /></g><g
           id="g41"
           transform="translate(-309.00496,143.02952)"><rect
             style="display:inline;opacity:1;fill:url(#linearGradient41);stroke:none;stroke-width:2;stroke-linecap:square"
             id="rect39"
             width="16.638733"
             height="310.80719"
             x="1007.835"
             y="604.32599"
             ry="8.3193922" /><rect
             style="display:inline;opacity:1;fill:url(#linearGradient42);fill-opacity:1;stroke:none;stroke-width:3.36977;stroke-linecap:square"
             id="rect41"
             width="73.686035"
             height="177.69696"
             x="979.3114"
             y="682.76599"
             ry="16.737856" /></g></g></g></g></svg>
